<svg width="147.000000" height="91.000000" viewBox="0 0 147 91" fill="none" xmlns="http://www.w3.org/2000/svg" xmlns:xlink="http://www.w3.org/1999/xlink">
	<desc>
			Created with Pixso.
	</desc>
	<defs>
		<clipPath id="clip2_178">
			<rect id="IMAGE" width="147.000000" height="91.000000" fill="white" fill-opacity="0"/>
		</clipPath>
	</defs>
	<g clip-path="url(#clip2_178)">
		<path id="Vector" d="M18.6849 0.21875C12.8838 2.83008 7.12218 5.3623 1.40003 8.14209C0.166813 8.73535 -0.34613 10.209 0.245815 11.4355C0.837761 12.6719 2.31747 13.1865 3.54082 12.5928C9.23338 9.8335 14.9456 7.3208 20.7072 4.72949C21.9503 4.16553 22.503 2.70166 21.9506 1.46533C21.3882 0.21875 19.928 -0.344727 18.6849 0.21875Z" fill="#118DA8" fill-opacity="1.000000" fill-rule="evenodd"/>
		<path id="Vector" d="M61.3048 31.1099C52.8795 49.3989 45.3813 68.103 37.3505 86.5605C36.8079 87.8164 37.3801 89.2705 38.6232 89.8145C39.8762 90.3589 41.3262 89.7949 41.8787 88.5386C49.8897 70.1113 57.368 51.4365 65.7835 33.187C66.3557 31.9404 65.8134 30.4766 64.5802 29.9028C63.3371 29.3291 61.877 29.873 61.3048 31.1099Z" fill="#118DA8" fill-opacity="1.000000" fill-rule="evenodd"/>
		<path id="Vector" d="M133.591 35.8574C136.285 52.6724 139.452 69.438 141.958 86.2832C142.165 87.6284 143.418 88.5581 144.759 88.3599C146.111 88.1621 147.038 86.8965 146.841 85.5513C144.325 68.6865 141.158 51.9009 138.455 35.0659C138.238 33.7207 136.975 32.8008 135.634 33.0181C134.282 33.2358 133.374 34.502 133.591 35.8574Z" fill="#118DA8" fill-opacity="1.000000" fill-rule="evenodd"/>
	</g>
</svg>
